<?xml version="1.0" encoding="UTF-8" standalone="no"?>
<!-- Created with Inkscape (http://www.inkscape.org/) -->

<svg
   xmlns:dc="http://purl.org/dc/elements/1.1/"
   xmlns:cc="http://creativecommons.org/ns#"
   xmlns:rdf="http://www.w3.org/1999/02/22-rdf-syntax-ns#"
   xmlns:svg="http://www.w3.org/2000/svg"
   xmlns="http://www.w3.org/2000/svg"
   xmlns:sodipodi="http://sodipodi.sourceforge.net/DTD/sodipodi-0.dtd"
   xmlns:inkscape="http://www.inkscape.org/namespaces/inkscape"
   version="1.1"
   id="svg3732"
   xml:space="preserve"
   width="806.35199"
   height="806.35065"
   viewBox="0 0 806.35199 806.35065"
   sodipodi:docname="SongsOfAdaptationLogo_B&amp;W_circle.svg"
   inkscape:version="0.92.3 (2405546, 2018-03-11)"><metadata
     id="metadata3738"><rdf:RDF><cc:Work
         rdf:about=""><dc:format>image/svg+xml</dc:format><dc:type
           rdf:resource="http://purl.org/dc/dcmitype/StillImage" /><dc:title></dc:title></cc:Work></rdf:RDF></metadata><defs
     id="defs3736"><clipPath
       clipPathUnits="userSpaceOnUse"
       id="clipPath3748"><path
         d="M 0,792 H 792 V 0 H 0 Z"
         id="path3746"
         inkscape:connector-curvature="0" /></clipPath></defs><sodipodi:namedview
     pagecolor="#ffffff"
     bordercolor="#666666"
     borderopacity="1"
     objecttolerance="10"
     gridtolerance="10"
     guidetolerance="10"
     inkscape:pageopacity="0"
     inkscape:pageshadow="2"
     inkscape:window-width="1317"
     inkscape:window-height="739"
     id="namedview3734"
     showgrid="false"
     inkscape:zoom="0.53125"
     inkscape:cx="403.17547"
     inkscape:cy="403.17534"
     inkscape:window-x="49"
     inkscape:window-y="0"
     inkscape:window-maximized="1"
     inkscape:current-layer="g3744" /><g
     id="g3740"
     inkscape:groupmode="layer"
     inkscape:label="SongsOfAdaptationLogo_B&amp;W_circle"
     transform="matrix(1.3333333,0,0,-1.3333333,-124.82453,931.17531)"><g
       id="g3742"><g
         id="g3744"
         clip-path="url(#clipPath3748)"><g
           id="g3750"
           transform="translate(396.0004,106.8545)"><path
             d="m 0,0 c -159.691,0 -289.146,129.455 -289.146,289.146 0,159.69 129.455,289.145 289.146,289.145 159.69,0 289.145,-129.455 289.145,-289.145 C 289.145,129.455 159.69,0 0,0 m 0,591.527 c -166.734,0 -302.382,-135.648 -302.382,-302.381 0,-166.735 135.648,-302.382 302.382,-302.382 166.733,0 302.382,135.647 302.382,302.382 0,166.733 -135.649,302.381 -302.382,302.381"
             style="fill:#000000;fill-opacity:1;fill-rule:nonzero;stroke:none"
             id="path3752"
             inkscape:connector-curvature="0" /></g><g
           id="g3754"
           transform="translate(467.5443,453.9771)"><path
             d="m 0,0 c -15.81,2.26 -31.679,4.608 -47.167,8.386 -7.33,1.788 -14.371,6.211 -20.583,10.753 -7.117,5.206 -7.548,13.747 -5.777,21.529 1.685,7.409 6.745,12.753 14.972,13.504 2.814,0.258 6.011,0.244 8.533,-0.827 C -22.385,41.611 2.597,26.239 21.052,-0.157 13.396,-0.157 6.575,-0.94 0,0 m 68.255,-46.212 c -0.892,0.563 -1.297,1.65 -0.953,2.647 0.487,1.411 1.115,3.776 1.115,3.776 0,0 0.836,5.426 4.497,5.119 16.48,-1.383 59.267,-11.182 59.871,-7.603 -3.139,3.096 -54.018,15.768 -64.198,17.728 C 45.339,-20.07 45.641,-7.332 31.479,3.404 25.022,8.299 19.846,14.845 13.763,20.277 c -18.46,16.485 -38.419,30.666 -62.061,38.897 -5.639,1.964 -8.374,5.083 -10.037,11.539 -6.807,26.425 -28.218,32.318 -51.621,24.302 -5.768,-1.975 -10.244,-2.855 -15.684,-0.793 -4.676,1.773 -9.485,3.195 -14.238,4.767 -0.544,-0.797 -0.485,-0.711 -1.028,-1.508 4.962,-5.861 9.924,-11.723 14.97,-17.684 -7.357,-4.028 -15.731,-0.552 -22.779,-6.266 2.508,-1.248 4.142,-2.205 5.879,-2.904 17.271,-6.938 27.053,-22.147 27.928,-40.938 0.561,-12.04 2.691,-24.037 4.619,-35.973 1.186,-7.345 6.523,-15.544 11.591,-20.912 9.645,-10.221 19.908,-12.086 32.527,-13.836 12.717,-1.763 20.711,-7.831 25.449,-19.64 2.58,-6.429 -0.378,-8.919 -3.568,-19.243 l -19.033,-45.064 c -13.282,-3.826 -15.315,-3.398 -15.613,-8.132 4.182,0.536 8.39,1.074 12.493,1.6 0.005,-10.257 0.003,-20.602 0,-31.238 l -0.004,-20.089 2.938,-0.135 c 0.671,-0.036 1.254,-0.068 1.941,-0.068 0.432,0 0.906,0.013 1.467,0.044 l 1.889,0.106 V -181 c 0,4.892 -0.035,10.822 -0.072,17.195 -0.063,10.547 -0.131,22.462 -0.059,32.787 h 0.008 c 2.962,0.29 5.578,0.547 8.146,0.799 v -0.089 c 0.005,-10.65 0.002,-21.39 0,-32.441 l -0.004,-20.089 2.938,-0.135 c 0.671,-0.036 1.254,-0.068 1.941,-0.068 0.432,0 0.906,0.013 1.467,0.044 l 1.889,0.106 V -181 c 0,4.884 -0.035,10.803 -0.072,17.165 -0.063,10.767 -0.135,22.972 -0.054,33.448 l 0.014,1.746 -1.729,0.249 c -0.32,0.046 -0.781,0.072 -1.284,0.089 -2.453,4.726 -8.856,1.45 -11.382,3.65 l 21.718,50.751 c 0.518,1.198 0.862,3.036 1.771,3.415 8.512,3.541 10.966,12.518 16.846,18.347 6.372,6.318 8.975,5.353 14.766,-1.881 7.277,-9.092 8.983,-18.659 7.092,-30.033 -2.14,-12.861 -2.003,-27.403 -3.176,-40.262 -4.395,-1.192 -8.487,-1.962 -12.259,-3.511 -1.326,-0.545 -2.963,-2.013 -3.508,-5.211 4.017,0.78 7.859,1.545 11.943,2.078 v -0.837 c 0.005,-10.188 0.002,-20.463 0,-31.044 l -0.003,-18.517 2.938,-0.128 c 0.671,-0.034 1.255,-0.063 1.941,-0.063 0.431,0 0.903,0.011 1.46,0.041 l 1.896,0.099 v 1.898 c 0,4.605 -0.035,10.186 -0.072,16.186 -0.064,10.125 -0.135,21.602 -0.055,31.451 l 0.013,1.509 c 4.801,0.006 10.938,-0.287 13.694,0.351 -0.011,0.863 0.151,1.589 -0.711,2.741 -4.085,0.919 -7.491,1.686 -11.67,2.626 1.247,14.688 2.191,30.106 2.941,44.165 0.727,13.644 6.028,25.919 9.906,39.181 16.982,0 85.111,-34.679 101.789,-34.688 4,-0.003 -38.987,19.969 -54.54,29.777"
             style="fill:#000000;fill-opacity:1;fill-rule:nonzero;stroke:none"
             id="path3756"
             inkscape:connector-curvature="0" /></g><g
           id="g3758"
           transform="translate(247.975,552.1421)"><path
             d="M 0,0 C -1.699,0.182 -3.43,0.216 -4.787,-0.392 V -5.24 c 18.716,-2.489 37.515,-4.023 56.263,-6.25 0.504,-0.06 1.023,0.003 1.573,0.152 l -0.087,5.335 C 35.324,-3.87 17.667,-1.892 0,0"
             style="fill:#000000;fill-opacity:1;fill-rule:nonzero;stroke:none"
             id="path3760"
             inkscape:connector-curvature="0" /></g><g
           id="g3762"
           transform="translate(296.912,570.5532)"><path
             d="M 0,0 C 0.893,1.187 1.895,3.384 2.64,4.654 L -39.568,26.625 C -39.971,25.526 -40.837,23.651 -41.24,22.552 -27.614,15.018 -14,7.457 -0.315,0.03 -0.23,-0.016 -0.107,0.005 0,0"
             style="fill:#000000;fill-opacity:1;fill-rule:nonzero;stroke:none"
             id="path3764"
             inkscape:connector-curvature="0" /></g><g
           id="g3766"
           transform="translate(295.4101,515.3032)"><path
             d="m 0,0 c -0.647,1.103 -2.021,3.09 -2.812,4.106 l -37.417,-18.825 c 0.632,-0.829 2.184,-3.034 2.827,-3.855 C -28.91,-14.742 -14.618,-7.234 0,0"
             style="fill:#000000;fill-opacity:1;fill-rule:nonzero;stroke:none"
             id="path3768"
             inkscape:connector-curvature="0" /></g><g
           id="g3770"
           transform="translate(620.9496,267)"><path
             d="m 0,0 c -0.008,2.603 -0.015,4.884 -0.024,6.35 -0.096,14.557 -0.155,29.118 -0.214,43.677 -0.033,8.091 -0.066,16.181 -0.105,24.276 -0.009,1.719 -0.017,3.498 -0.097,5.168 l -0.096,1.996 -1.996,-0.094 c -1.248,-0.058 -3.82,-0.008 -3.845,-0.007 l -2.04,0.041 V -18.67 l 1.956,-0.043 c 0.905,-0.019 2.315,-0.022 3.334,-0.024 0.578,-0.002 1.023,-0.002 1.123,-0.005 l 2.156,-0.122 -0.043,2.159 C 0.04,-13.268 0.018,-5.911 0,0"
             style="fill:#000000;fill-opacity:1;fill-rule:nonzero;stroke:none"
             id="path3772"
             inkscape:connector-curvature="0" /></g><g
           id="g3774"
           transform="translate(636.8549,333.3018)"><path
             d="M 0,0 0.009,1.649 -1.608,1.972 C -2.752,2.2 -5.393,2.125 -6.177,2.1 L -8.106,2.03 -8.105,0.1 c 0.005,-14.978 0.002,-30.084 0,-45.641 l -0.003,-26.284 1.877,-0.115 c 0.377,-0.024 0.708,-0.048 1.013,-0.071 0.687,-0.051 1.285,-0.094 1.99,-0.094 0.445,0 0.93,0.017 1.508,0.061 l 1.847,0.142 v 1.852 c 0,6.768 -0.035,14.971 -0.072,23.788 C -0.009,-31.371 -0.08,-14.493 0,0"
             style="fill:#000000;fill-opacity:1;fill-rule:nonzero;stroke:none"
             id="path3776"
             inkscape:connector-curvature="0" /></g><g
           id="g3778"
           transform="translate(604.6283,267)"><path
             d="m 0,0 c -0.008,2.603 -0.015,4.884 -0.024,6.35 -0.095,14.455 -0.154,28.911 -0.213,43.368 -0.034,8.193 -0.067,16.386 -0.107,24.579 -0.008,1.711 -0.015,3.48 -0.096,5.174 l -0.096,1.996 -1.996,-0.094 c -1.248,-0.058 -3.82,-0.008 -3.845,-0.007 l -2.04,0.041 V -18.67 l 1.956,-0.043 c 0.905,-0.019 2.315,-0.022 3.334,-0.024 0.577,-0.002 1.023,-0.002 1.123,-0.005 l 2.156,-0.122 -0.043,2.159 C 0.04,-13.268 0.018,-5.911 0,0"
             style="fill:#000000;fill-opacity:1;fill-rule:nonzero;stroke:none"
             id="path3780"
             inkscape:connector-curvature="0" /></g><g
           id="g3782"
           transform="translate(588.0648,341.0957)"><path
             d="M 0,0 0.007,1.579 -1.527,1.952 C -2.716,2.241 -5.398,2.151 -6.193,2.115 L -8.106,2.031 -8.105,0.116 c 0.005,-18.311 0.002,-36.781 0,-55.801 l -0.003,-31.691 1.85,-0.139 c 0.375,-0.028 0.704,-0.057 1.007,-0.085 0.696,-0.063 1.303,-0.118 2.019,-0.118 0.454,0 0.953,0.023 1.545,0.078 l 1.813,0.171 v 1.821 c 0,8.259 -0.034,18.268 -0.072,29.026 C -0.009,-38.396 -0.081,-17.74 0,0"
             style="fill:#000000;fill-opacity:1;fill-rule:nonzero;stroke:none"
             id="path3784"
             inkscape:connector-curvature="0" /></g><g
           id="g3786"
           transform="translate(571.934,323.5898)"><path
             d="M 0,0 0.014,1.746 -1.715,1.995 C -2.83,2.156 -5.611,2.094 -6.157,2.079 l -1.949,-0.05 10e-4,-1.95 c 0.005,-10.822 0.002,-21.739 0,-32.98 l -0.003,-19.55 2.938,-0.135 c 0.671,-0.036 1.254,-0.067 1.941,-0.067 0.432,0 0.905,0.012 1.466,0.044 l 1.889,0.105 v 1.892 c 0,4.883 -0.035,10.802 -0.072,17.164 C -0.009,-22.681 -0.081,-10.476 0,0"
             style="fill:#000000;fill-opacity:1;fill-rule:nonzero;stroke:none"
             id="path3788"
             inkscape:connector-curvature="0" /></g><g
           id="g3790"
           transform="translate(555.5951,317.2676)"><path
             d="m 0,0 0.019,1.814 -1.804,0.195 c -1.076,0.117 -3.82,0.07 -4.36,0.059 L -8.106,2.029 -8.105,0.067 c 0.005,-7.989 0.002,-16.046 0,-24.337 l -0.004,-15.569 2.955,-0.102 c 0.686,-0.028 1.256,-0.05 1.921,-0.05 0.423,0 0.886,0.009 1.442,0.032 l 1.917,0.08 v 1.918 c 0,3.666 -0.035,8.108 -0.072,12.884 C -0.009,-17.003 -0.081,-7.852 0,0"
             style="fill:#000000;fill-opacity:1;fill-rule:nonzero;stroke:none"
             id="path3792"
             inkscape:connector-curvature="0" /></g><g
           id="g3794"
           transform="translate(539.4359,310.9473)"><path
             d="M 0,0 0.028,1.89 -1.856,2.025 C -2.914,2.1 -5.805,2.066 -6.13,2.063 L -8.106,2.037 -8.104,0.061 c 0.005,-5.332 0.002,-10.708 0,-16.241 l -0.004,-11.057 2.995,-0.07 c 0.676,-0.017 1.236,-0.033 1.889,-0.033 0.414,0 0.866,0.006 1.407,0.022 l 1.944,0.053 v 1.946 c 0,2.454 -0.035,5.429 -0.072,8.627 C -0.009,-11.315 -0.08,-5.221 0,0"
             style="fill:#000000;fill-opacity:1;fill-rule:nonzero;stroke:none"
             id="path3796"
             inkscape:connector-curvature="0" /></g><g
           id="g3798"
           transform="translate(523.2777,310.9473)"><path
             d="M 0,0 0.028,1.89 -1.856,2.025 C -2.915,2.1 -5.805,2.066 -6.13,2.063 L -8.106,2.037 -8.104,0.061 c 0.005,-5.332 0.002,-10.708 0,-16.241 l -0.004,-11.057 2.995,-0.07 c 0.676,-0.017 1.236,-0.033 1.889,-0.033 0.414,0 0.866,0.006 1.407,0.022 l 1.944,0.053 v 1.946 c 0,2.454 -0.035,5.429 -0.072,8.627 C -0.009,-11.315 -0.08,-5.221 0,0"
             style="fill:#000000;fill-opacity:1;fill-rule:nonzero;stroke:none"
             id="path3800"
             inkscape:connector-curvature="0" /></g><g
           id="g3802"
           transform="translate(507.0043,308.4785)"><path
             d="m 0,0 0.036,1.925 -1.922,0.11 c -1.041,0.058 -3.916,0.031 -4.24,0.028 l -1.982,-0.02 0.003,-1.982 c 0.005,-4.295 0.002,-8.626 0,-13.082 l -0.004,-9.296 2.979,-0.057 c 0.677,-0.015 1.238,-0.026 1.892,-0.026 0.415,0 0.867,0.004 1.409,0.017 l 1.955,0.044 v 1.955 c 0,1.977 -0.035,4.373 -0.072,6.947 C -0.009,-9.105 -0.08,-4.198 0,0"
             style="fill:#000000;fill-opacity:1;fill-rule:nonzero;stroke:none"
             id="path3804"
             inkscape:connector-curvature="0" /></g><g
           id="g3806"
           transform="translate(490.7113,307.6396)"><path
             d="m 0,0 0.04,1.936 -1.934,0.103 c -1.035,0.056 -3.907,0.029 -4.23,0.027 L -8.108,2.048 -8.105,0.063 c 0.005,-3.943 0.002,-7.92 0,-12.012 l -0.004,-8.7 3.003,-0.051 c 0.68,-0.014 1.238,-0.025 1.884,-0.025 0.409,0 0.855,0.004 1.389,0.015 l 1.959,0.04 v 1.96 c 0,1.816 -0.035,4.019 -0.072,6.385 C -0.009,-8.352 -0.08,-3.849 0,0"
             style="fill:#000000;fill-opacity:1;fill-rule:nonzero;stroke:none"
             id="path3808"
             inkscape:connector-curvature="0" /></g><g
           id="g3810"
           transform="translate(457.9682,316.4941)"><path
             d="m 0,0 0.02,1.822 -1.813,0.189 c -1.096,0.114 -4.019,0.062 -4.35,0.057 L -8.106,2.031 -8.105,0.066 c 0.005,-7.788 0.002,-15.644 0,-23.733 l -0.003,-14.629 2.954,-0.1 c 0.686,-0.026 1.257,-0.047 1.922,-0.047 0.422,0 0.884,0.008 1.438,0.031 l 1.92,0.076 v 1.922 c 0,3.518 -0.035,7.779 -0.072,12.361 C -0.009,-16.309 -0.081,-7.53 0,0"
             style="fill:#000000;fill-opacity:1;fill-rule:nonzero;stroke:none"
             id="path3812"
             inkscape:connector-curvature="0" /></g><g
           id="g3814"
           transform="translate(441.8656,303.0537)"><path
             d="M 0,0 0.081,2.024 -1.943,2.079 C -2.962,2.106 -6.111,2.092 -6.112,2.093 L -8.108,2.084 -8.103,0.087 c 0.006,-2.026 0.003,-4.07 0,-6.174 l -0.004,-5.449 3.033,-0.027 c 0.668,-0.006 1.217,-0.012 1.853,-0.012 0.405,0 0.844,0.002 1.371,0.008 l 1.979,0.021 v 1.979 c 0,0.949 -0.035,2.099 -0.073,3.337 C -0.006,-4.213 -0.077,-1.926 0,0"
             style="fill:#000000;fill-opacity:1;fill-rule:nonzero;stroke:none"
             id="path3816"
             inkscape:connector-curvature="0" /></g><g
           id="g3818"
           transform="translate(392.8832,318.6846)"><path
             d="M 0,0 0.017,1.798 -1.77,2.005 C -2.854,2.131 -5.605,2.081 -6.146,2.07 l -1.959,-0.041 0.001,-1.96 c 0.005,-8.585 0.002,-17.244 0,-26.152 l -0.004,-16.582 2.957,-0.109 c 0.685,-0.03 1.254,-0.054 1.918,-0.054 0.425,0 0.89,0.01 1.45,0.035 l 1.91,0.086 v 1.912 c 0,3.945 -0.035,8.727 -0.072,13.866 C -0.009,-18.259 -0.08,-8.433 0,0"
             style="fill:#000000;fill-opacity:1;fill-rule:nonzero;stroke:none"
             id="path3820"
             inkscape:connector-curvature="0" /></g><g
           id="g3822"
           transform="translate(376.4027,329.3691)"><path
             d="M 0,0 0.011,1.687 -1.651,1.982 C -2.771,2.18 -5.392,2.115 -6.169,2.091 L -8.106,2.029 -8.105,0.091 c 0.005,-13.295 0.002,-26.705 0,-40.514 l -0.003,-23.556 1.89,-0.103 c 0.378,-0.021 0.71,-0.042 1.015,-0.063 0.682,-0.044 1.276,-0.084 1.975,-0.084 0.44,0 0.92,0.016 1.491,0.055 l 1.864,0.127 v 1.868 c 0,6.008 -0.035,13.29 -0.072,21.117 C -0.009,-27.844 -0.08,-12.862 0,0"
             style="fill:#000000;fill-opacity:1;fill-rule:nonzero;stroke:none"
             id="path3824"
             inkscape:connector-curvature="0" /></g><g
           id="g3826"
           transform="translate(360.4735,326.1758)"><path
             d="m 0,0 0.012,1.718 -1.697,0.27 C -2.816,2.169 -5.613,2.101 -6.163,2.084 L -8.106,2.028 -8.105,0.084 c 0.005,-11.83 0.002,-23.762 0,-36.044 l -0.004,-21.649 1.903,-0.093 c 0.382,-0.019 0.717,-0.038 1.025,-0.056 0.674,-0.04 1.261,-0.074 1.951,-0.074 0.436,0 0.913,0.014 1.479,0.049 l 1.877,0.115 v 1.881 c 0,5.382 -0.035,11.904 -0.072,18.915 C -0.009,-25.003 -0.081,-11.55 0,0"
             style="fill:#000000;fill-opacity:1;fill-rule:nonzero;stroke:none"
             id="path3828"
             inkscape:connector-curvature="0" /></g><g
           id="g3830"
           transform="translate(344.0844,334.6299)"><path
             d="M 0,0 0.009,1.639 -1.596,1.97 c -1.15,0.236 -3.799,0.16 -4.583,0.132 L -8.105,2.029 V 0.102 c 0.006,-15.416 0.003,-30.966 0,-46.971 l -0.003,-27.607 1.873,-0.119 c 0.376,-0.023 0.706,-0.049 1.009,-0.072 0.688,-0.053 1.287,-0.099 1.994,-0.099 0.446,0 0.936,0.019 1.518,0.066 l 1.84,0.146 v 1.847 c 0,7.019 -0.034,15.523 -0.072,24.666 C -0.009,-32.577 -0.08,-15.051 0,0"
             style="fill:#000000;fill-opacity:1;fill-rule:nonzero;stroke:none"
             id="path3832"
             inkscape:connector-curvature="0" /></g><g
           id="g3834"
           transform="translate(327.9076,336.2471)"><path
             d="m 0,0 0.008,1.622 -1.586,0.343 c -1.161,0.25 -3.818,0.171 -4.605,0.139 L -8.106,2.03 -8.105,0.105 c 0.005,-16.102 0.002,-32.344 0,-49.061 l -0.004,-28.744 1.866,-0.125 c 0.373,-0.026 0.7,-0.052 1.001,-0.076 0.694,-0.055 1.298,-0.104 2.011,-0.104 0.448,0 0.939,0.019 1.522,0.067 l 1.835,0.153 v 1.841 c 0,7.324 -0.035,16.2 -0.072,25.741 C -0.009,-34.044 -0.081,-15.729 0,0"
             style="fill:#000000;fill-opacity:1;fill-rule:nonzero;stroke:none"
             id="path3836"
             inkscape:connector-curvature="0" /></g><g
           id="g3838"
           transform="translate(311.5053,328.3838)"><path
             d="m 0,0 0.011,1.697 -1.673,0.287 c -1.116,0.19 -3.73,0.128 -4.505,0.104 l -1.939,-0.06 10e-4,-1.94 c 0.006,-12.767 0.003,-25.643 0,-38.897 l -0.003,-23.203 1.894,-0.1 c 0.375,-0.02 0.703,-0.041 1.006,-0.061 0.683,-0.043 1.276,-0.08 1.976,-0.08 0.439,0 0.92,0.015 1.49,0.052 l 1.868,0.124 v 1.872 c 0,5.812 -0.034,12.857 -0.072,20.429 C -0.009,-26.973 -0.08,-12.46 0,0"
             style="fill:#000000;fill-opacity:1;fill-rule:nonzero;stroke:none"
             id="path3840"
             inkscape:connector-curvature="0" /></g><g
           id="g3842"
           transform="translate(295.4345,331.5674)"><path
             d="M 0,0 0.01,1.666 -1.627,1.977 C -2.762,2.192 -5.393,2.123 -6.173,2.096 L -8.106,2.03 -8.105,0.096 c 0.006,-14.117 0.003,-28.357 0,-43.014 l -0.003,-25.448 1.884,-0.11 c 0.378,-0.021 0.71,-0.045 1.016,-0.066 0.683,-0.048 1.278,-0.089 1.98,-0.089 0.441,0 0.925,0.017 1.499,0.058 l 1.855,0.135 v 1.86 c 0,6.427 -0.034,14.217 -0.072,22.59 C -0.009,-29.829 -0.08,-13.78 0,0"
             style="fill:#000000;fill-opacity:1;fill-rule:nonzero;stroke:none"
             id="path3844"
             inkscape:connector-curvature="0" /></g><g
           id="g3846"
           transform="translate(279.0605,310.1572)"><path
             d="M 0,0 0.031,1.9 -1.866,2.027 C -2.917,2.098 -5.803,2.066 -6.129,2.063 L -8.107,2.039 -8.105,0.061 c 0.006,-5.04 0.003,-10.122 0,-15.353 l -0.003,-10.37 2.992,-0.065 c 0.677,-0.017 1.239,-0.031 1.894,-0.031 0.412,0 0.862,0.005 1.401,0.02 l 1.948,0.05 v 1.949 c 0,2.301 -0.035,5.089 -0.072,8.086 C -0.008,-10.61 -0.08,-4.895 0,0"
             style="fill:#000000;fill-opacity:1;fill-rule:nonzero;stroke:none"
             id="path3848"
             inkscape:connector-curvature="0" /></g><g
           id="g3850"
           transform="translate(262.8515,303.0537)"><path
             d="m 0,0 0.081,2.024 -2.025,0.055 c -1.02,0.028 -4.169,0.014 -4.169,0.014 L -8.109,2.084 -8.104,0.087 c 0.006,-2.042 0.003,-4.103 0,-6.224 l -0.003,-5.399 3.032,-0.027 c 0.668,-0.006 1.218,-0.012 1.854,-0.012 0.404,0 0.843,0.002 1.37,0.008 l 1.979,0.021 v 1.979 c 0,0.948 -0.035,2.097 -0.073,3.333 C -0.007,-4.215 -0.078,-1.927 0,0"
             style="fill:#000000;fill-opacity:1;fill-rule:nonzero;stroke:none"
             id="path3852"
             inkscape:connector-curvature="0" /></g><g
           id="g3854"
           transform="translate(246.6122,304.5244)"><path
             d="m 0,0 0.062,1.988 -1.989,0.073 c -1.034,0.038 -4.061,0.017 -4.19,0.017 L -8.108,2.065 -8.104,0.074 c 0.006,-2.66 0.003,-5.343 0,-8.104 l -0.004,-6.423 3.025,-0.034 c 0.672,-0.009 1.223,-0.016 1.861,-0.016 0.406,0 0.847,0.003 1.376,0.01 l 1.973,0.027 v 1.973 c 0,1.224 -0.034,2.709 -0.072,4.305 C -0.008,-5.544 -0.079,-2.545 0,0"
             style="fill:#000000;fill-opacity:1;fill-rule:nonzero;stroke:none"
             id="path3856"
             inkscape:connector-curvature="0" /></g><g
           id="g3858"
           transform="translate(230.1947,320.6006)"><path
             d="M 0,0 0.015,1.778 -1.749,2.002 C -2.844,2.14 -5.607,2.085 -6.15,2.073 L -8.106,2.029 -8.105,0.073 c 0.006,-9.466 0.003,-19.012 0,-28.839 l -0.003,-17.721 2.946,-0.119 c 0.668,-0.033 1.249,-0.059 1.933,-0.059 0.429,0 0.898,0.011 1.454,0.037 l 1.901,0.094 v 1.904 c 0,4.312 -0.034,9.536 -0.072,15.152 C -0.009,-19.987 -0.08,-9.231 0,0"
             style="fill:#000000;fill-opacity:1;fill-rule:nonzero;stroke:none"
             id="path3860"
             inkscape:connector-curvature="0" /></g><g
           id="g3862"
           transform="translate(213.723,331.5195)"><path
             d="M 0,0 0.01,1.666 -1.627,1.977 C -2.761,2.19 -5.393,2.122 -6.173,2.096 L -8.106,2.03 -8.105,0.096 c 0.005,-14.097 0.002,-28.316 0,-42.951 l -0.004,-25.414 1.883,-0.11 c 0.374,-0.022 0.702,-0.045 1.004,-0.066 0.687,-0.048 1.285,-0.09 1.99,-0.09 0.442,0 0.928,0.016 1.503,0.057 l 1.855,0.136 v 1.86 c 0,6.413 -0.035,14.183 -0.072,22.536 C -0.009,-29.8 -0.081,-13.767 0,0"
             style="fill:#000000;fill-opacity:1;fill-rule:nonzero;stroke:none"
             id="path3864"
             inkscape:connector-curvature="0" /></g><g
           id="g3866"
           transform="translate(197.5297,326.7871)"><path
             d="M 0,0 0.012,1.713 -1.679,1.987 C -2.813,2.173 -5.613,2.103 -6.164,2.086 L -8.106,2.03 -8.105,0.086 c 0.005,-12.19 0.002,-24.486 0,-37.149 L -8.108,-58.828 -5.2,-58.98 c 0.679,-0.041 1.27,-0.077 1.967,-0.077 0.438,0 0.916,0.015 1.484,0.05 l 1.875,0.117 v 1.879 c 0,5.505 -0.034,12.176 -0.072,19.347 C -0.009,-25.539 -0.08,-11.797 0,0"
             style="fill:#000000;fill-opacity:1;fill-rule:nonzero;stroke:none"
             id="path3868"
             inkscape:connector-curvature="0" /></g><g
           id="g3870"
           transform="translate(181.4564,315.7451)"><path
             d="M 0,0 0.02,1.832 -1.803,2.013 C -2.892,2.12 -5.812,2.073 -6.142,2.066 L -8.107,2.031 -8.105,0.064 c 0.005,-7.406 0.002,-14.876 0,-22.565 l -0.004,-14.303 2.963,-0.093 c 0.683,-0.026 1.25,-0.046 1.912,-0.046 0.422,0 0.883,0.008 1.437,0.03 l 1.923,0.073 v 1.925 c 0,3.375 -0.034,7.467 -0.072,11.864 C -0.009,-15.628 -0.08,-7.216 0,0"
             style="fill:#000000;fill-opacity:1;fill-rule:nonzero;stroke:none"
             id="path3872"
             inkscape:connector-curvature="0" /></g><g
           id="g3874"
           transform="translate(165.0238,312.5127)"><path
             d="M 0,0 0.025,1.87 -1.839,2.021 C -2.907,2.106 -5.808,2.067 -6.134,2.063 L -8.107,2.035 -8.105,0.062 c 0.005,-6.037 0.002,-12.125 0,-18.392 l -0.004,-12.028 2.986,-0.078 c 0.679,-0.02 1.242,-0.037 1.899,-0.037 0.416,0 0.869,0.007 1.412,0.024 l 1.938,0.06 v 1.939 c 0,2.754 -0.034,6.091 -0.072,9.678 C -0.009,-12.726 -0.08,-5.873 0,0"
             style="fill:#000000;fill-opacity:1;fill-rule:nonzero;stroke:none"
             id="path3876"
             inkscape:connector-curvature="0" /></g><g
           id="g3878"
           transform="translate(148.8251,307.7061)"><path
             d="M 0,0 0.04,1.933 -1.891,2.038 C -2.929,2.094 -5.8,2.07 -6.125,2.065 L -8.108,2.046 -8.105,0.062 c 0.006,-4.001 0.003,-8.039 0,-12.193 l -0.004,-8.65 3.003,-0.051 c 0.681,-0.014 1.239,-0.024 1.886,-0.024 0.409,0 0.854,0.003 1.387,0.014 l 1.96,0.04 v 1.96 c 0,1.831 -0.035,4.05 -0.072,6.435 C -0.008,-8.407 -0.08,-3.874 0,0"
             style="fill:#000000;fill-opacity:1;fill-rule:nonzero;stroke:none"
             id="path3880"
             inkscape:connector-curvature="0" /></g><g
           id="g3882"
           transform="translate(653.7113,296.8164)"><path
             d="m 0,0 c -0.062,2.021 -0.132,4.31 -0.055,6.236 l 0.082,2.026 -2.025,0.054 c -1.021,0.028 -4.17,0.013 -4.17,0.014 L -8.164,8.321 -8.158,6.324 c 0.006,-2.059 0.003,-4.137 0,-6.277 l -0.004,-5.346 3.033,-0.026 c 0.668,-0.007 1.217,-0.013 1.853,-0.013 0.404,0 0.843,0.002 1.371,0.008 l 1.978,0.021 V -3.33 C 0.073,-2.382 0.038,-1.233 0,0"
             style="fill:#000000;fill-opacity:1;fill-rule:nonzero;stroke:none"
             id="path3884"
             inkscape:connector-curvature="0" /></g></g></g></g></svg>